Coordinates
version=1
nRows=20
nColumns=33
inDegrees=yes

Units are S.I. units (second, meters, Newtons, ...)
Angles are in degrees.

endheader
time	ground_thorax_rot_x	ground_thorax_rot_y	ground_thorax_rot_z	ground_thorax_tx	ground_thorax_ty	ground_thorax_tz	clav_prot_r	clav_elev_r	scapula_abduction_r	scapula_elevation_r	scapula_upward_rot_r	scapula_winging_r	shoulder_elv_r	plane_of_elev_r	axial_rot_r	elbow_flexion_r	pro_sup_r	wrist_flex_r	wrist_dev_r	clav_prot_l	clav_elev_l	scapula_abduction_l	scapula_elevation_l	scapula_upward_rot_l	scapula_winging_l	shoulder_elv_l	plane_of_elev_l	axial_rot_l	elbow_flexion_l	pro_sup_l	wrist_flex_l	wrist_dev_l	
4.7900	37.371229	8.564860	11.497217	-87.870118	792.051261	-3.342604	16.813575	41.989393	45.000000	44.200122	-29.180996	-4040.313912	-1372.842384	34.541291	16.855454	1449.196367	22.311344	16.414207	13.926261	6.468395	-45.000000	-45.000000	45.000000	-11.579858	808.941628	-2261.775809	137.766474	180.000000	365.255286	28.952515	11.548175	-19.134307	
4.8000	37.349790	8.528014	11.545600	-87.653375	792.281289	-3.109686	16.882863	41.924116	45.000000	44.215108	-29.233415	-4040.309992	-1372.823978	34.557836	16.931137	1449.199143	22.376008	16.510348	13.990562	6.532416	-45.000000	-45.000000	45.000000	-11.651107	808.906566	-2261.719280	137.747855	180.000000	365.206116	28.917059	11.581552	-19.132025	
4.8100	37.325687	8.492714	11.602247	-87.503600	792.530680	-2.879670	16.962454	41.822293	45.000000	44.232430	-29.275543	-4040.298914	-1372.795533	34.543936	17.048013	1449.212606	22.433009	16.639885	14.083264	6.604445	-45.000000	-45.000000	45.000000	-11.712447	808.891590	-2261.659192	137.729985	180.000000	365.163276	28.883423	11.638456	-19.138314	
4.8200	37.314069	8.411854	11.607498	-87.492955	792.824531	-2.652518	16.974880	41.763020	45.000000	44.256108	-29.239930	-4040.318957	-1372.793673	34.539090	17.205647	1449.232312	22.471056	16.729506	14.126406	6.618401	-45.000000	-45.000000	45.000000	-11.688780	808.886882	-2261.602561	137.719132	180.000000	365.109757	28.855625	11.664585	-19.148575	
4.8300	37.311383	8.308409	11.588584	-87.637358	793.163219	-2.431569	16.953432	41.738357	44.999999	44.293669	-29.175097	-4040.355582	-1372.799940	34.530708	17.413066	1449.262873	22.482923	16.805180	14.141289	6.601346	-45.000000	-45.000000	45.000000	-11.617200	808.901026	-2261.548591	137.715147	180.000000	365.053132	28.823653	11.679918	-19.165928	
4.8400	37.312754	8.192003	11.559607	-87.962753	793.550866	-2.219996	16.909667	41.726479	44.999999	44.340754	-29.094358	-4040.407739	-1372.805814	34.514143	17.670286	1449.304812	22.458455	16.871640	14.133530	6.560865	-45.000000	-45.000000	45.000000	-11.507018	808.942110	-2261.492159	137.715309	180.000000	364.991583	28.776333	11.689669	-19.190315	
4.8500	37.319430	8.075997	11.534237	-88.479800	793.985965	-2.021427	16.858822	41.762754	44.999998	44.408039	-29.043811	-4040.467517	-1372.799010	34.493108	17.966898	1449.364570	22.386271	16.931306	14.100233	6.510067	-45.000000	-44.999999	45.000000	-11.384220	809.009983	-2261.435026	137.723070	180.000000	364.934489	28.696176	11.695907	-19.221508	
4.8600	37.326697	7.978581	11.535873	-89.192745	794.466174	-1.839164	16.827317	41.838151	44.999997	44.500544	-29.059234	-4040.517583	-1372.766443	34.457421	18.284527	1449.447514	22.251917	16.992671	14.051489	6.466056	-45.000000	-44.999999	45.000000	-11.279099	809.109160	-2261.375603	137.739904	180.000000	364.889354	28.563101	11.705804	-19.257596	
4.8700	37.335930	7.898156	11.559869	-90.105666	794.991767	-1.675671	16.807863	41.970887	44.999995	44.616906	-29.150024	-4040.562832	-1372.705658	34.417141	18.605229	1449.553468	22.047165	17.047022	13.980963	6.428469	-45.000000	-44.999998	45.000000	-11.195578	809.236402	-2261.315149	137.767730	180.000000	364.861041	28.360967	11.713621	-19.297460	
4.8800	37.338936	7.833435	11.606669	-91.223274	795.565956	-1.532689	16.801399	42.108096	44.999990	44.737141	-29.292418	-4040.614381	-1372.617355	34.369268	18.925296	1449.678988	21.771486	17.098880	13.899838	6.399687	-45.000000	-44.999997	45.000000	-11.128330	809.398829	-2261.245356	137.799358	180.000000	364.849704	28.081591	11.722863	-19.341255	
4.8900	37.333256	7.773785	11.660572	-92.549816	796.193955	-1.411353	16.795443	42.242333	44.999983	44.844360	-29.461236	-4040.691181	-1372.506396	34.321390	19.248256	1449.816687	21.432901	17.146150	13.806797	6.376118	-45.000000	-44.999994	45.000000	-11.064635	809.593531	-2261.159808	137.830378	180.000000	364.852411	27.725563	11.730723	-19.389759	
4.9000	37.314823	7.718333	11.722149	-94.089860	796.882495	-1.312151	16.794840	42.346437	44.999969	44.928881	-29.640757	-4040.799589	-1372.378676	34.274371	19.579893	1449.960182	21.038386	17.190057	13.702690	6.360396	-45.000000	-44.999990	45.000000	-11.012235	809.820355	-2261.051171	137.855977	180.000000	364.863366	27.298313	11.736344	-19.441839	
4.9100	37.283428	7.659964	11.781502	-95.846990	797.638075	-1.235156	16.788339	42.406976	44.999945	44.979742	-29.811213	-4040.952396	-1372.238855	34.233134	19.927346	1450.100572	20.600636	17.231156	13.588585	6.351751	-45.000000	-44.999981	45.000000	-10.968126	810.073756	-2260.912432	137.872188	180.000000	364.876555	26.811415	11.737525	-19.498671	
4.9200	37.241879	7.595820	11.836242	-97.824476	798.466292	-1.179987	16.773891	42.415326	44.999902	45.000000	-29.962216	-4041.150295	-1372.093317	34.196188	20.295465	1450.239647	20.131735	17.272689	13.463709	6.350732	-45.000000	-44.999966	45.000000	-10.937341	810.352681	-2260.742735	137.878856	180.000000	364.898228	26.278849	11.730830	-19.562897	
4.9300	37.195702	7.523655	11.881108	-100.024193	799.370499	-1.145950	16.751578	42.394901	44.999824	45.000000	-30.100347	-4041.385724	-1371.942821	34.160809	20.678122	1450.378518	19.641942	17.316211	13.325351	6.358867	-45.000000	-44.999940	45.000000	-10.927862	810.649353	-2260.541887	137.878344	180.000000	364.933294	25.714519	11.712459	-19.635635	
4.9400	37.152246	7.446811	11.919782	-102.447257	800.351872	-1.131976	16.728998	42.369666	44.999685	45.000000	-30.245229	-4041.642361	-1371.787598	34.123922	21.063070	1450.522966	19.136814	17.363517	13.170390	6.379541	-45.000000	-44.999892	45.000000	-10.958019	810.959902	-2260.315666	137.876471	180.000000	364.990504	25.127736	11.678596	-19.717165	
4.9500	37.111233	7.370790	11.957419	-105.093119	801.408952	-1.136724	16.720583	42.337513	44.999435	45.000000	-30.421582	-4041.918656	-1371.623148	34.090925	21.435571	1450.670873	18.620250	17.414923	13.000755	6.421822	-45.000000	-44.999807	45.000000	-11.048574	811.283689	-2260.059981	137.866431	180.000000	365.069879	24.522227	11.630692	-19.805056	
4.9600	37.077527	7.288927	11.984040	-107.959274	802.538003	-1.158542	16.707062	42.289022	44.998988	45.000000	-30.599321	-4042.218096	-1371.455507	34.055266	21.800558	1450.820326	18.108322	17.474640	12.820840	6.477640	-45.000000	-44.999655	45.000000	-11.177278	811.622380	-2259.784045	137.854341	180.000000	365.174896	23.902483	11.566384	-19.902167	
4.9700	37.047907	7.218948	12.019795	-111.041647	803.733465	-1.195482	16.725151	42.227650	44.998187	45.000000	-30.830554	-4042.538424	-1371.277647	34.031275	22.163555	1450.966150	17.602055	17.538111	12.621243	6.566393	-45.000000	-44.999382	45.000000	-11.395213	811.978817	-2259.482430	137.828657	180.000000	365.299875	23.259971	11.493023	-20.000728	
4.9800	37.029283	7.142074	12.039762	-114.333937	804.988499	-1.245357	16.733391	42.175961	44.996752	45.000000	-31.040061	-4042.880285	-1371.107684	33.995707	22.554896	1451.109676	17.125438	17.611314	12.411541	6.665993	-45.000000	-44.998893	45.000000	-11.645460	812.342820	-2259.167818	137.807582	180.000000	365.433813	22.595638	11.406959	-20.101008	
